<?xml version="1.0" encoding="UTF-8" standalone="no"?>
<svg
   width="24"
   height="24"
   viewBox="0 0 24 24"
   version="1.1"
   xml:space="preserve"
   id="SVGRoot"
   xmlns="http://www.w3.org/2000/svg"
   xmlns:svg="http://www.w3.org/2000/svg"><defs
   id="defs1"><linearGradient
     id="swatch52"><stop
       style="stop-color:#000000;stop-opacity:1;"
       offset="0"
       id="stop52" /></linearGradient></defs>

<style
   type="text/css"
   id="style1">
g.prefab path {
  vector-effect:non-scaling-stroke;
  -inkscape-stroke:hairline;
  fill: none;
  fill-opacity: 1;
  stroke-opacity: 1;
  stroke: #00349c;
}
</style>

<g
   id="layer1"><path
     style="display:inline;fill:none;stroke:none;stroke-width:0;stroke-linecap:butt;stroke-linejoin:miter;stroke-miterlimit:0;stroke-dasharray:none"
     id="rect4"
     width="24"
     height="24"
     x="0"
     y="-24"
     transform="scale(1,-1)"
     d="M 0,-24 H 24 V 0 H 0 Z" /><path
     id="path56"
     style="stroke-linecap:round;stroke-linejoin:round"
     d="m 12,0.74804688 a 1.25,1.25 0 0 0 -0.884766,0.36718752 1.25,1.25 0 0 0 0,1.7695312 L 18.980469,10.75 H 2 A 1.25,1.25 0 0 0 0.75,12 1.25,1.25 0 0 0 2,13.25 h 16.980469 l -7.865235,7.865234 a 1.25,1.25 0 0 0 0,1.769532 1.25,1.25 0 0 0 1.769532,0 l 10,-10 a 1.250125,1.250125 0 0 0 0.123046,-0.146485 1.250125,1.250125 0 0 0 0.0039,-0.0039 1.25,1.25 0 0 0 0.0039,-0.0078 1.250125,1.250125 0 0 0 0.167969,-0.328124 1.25,1.25 0 0 0 0.0078,-0.02149 1.250125,1.250125 0 0 0 0.04883,-0.527344 1.250125,1.250125 0 0 0 -0.02734,-0.148437 1.250125,1.250125 0 0 0 -0.04492,-0.144531 1.250125,1.250125 0 0 0 -0.04883,-0.111329 1.250125,1.250125 0 0 0 -0.01172,-0.02539 1.25,1.25 0 0 0 -0.0078,-0.01172 1.250125,1.250125 0 0 0 -0.04687,-0.07813 1.25,1.25 0 0 0 -0.04297,-0.06445 1.250125,1.250125 0 0 0 -0.06055,-0.07617 1.250125,1.250125 0 0 0 -0.01367,-0.01758 1.25,1.25 0 0 0 -0.0098,-0.0098 1.250125,1.250125 0 0 0 -0.04102,-0.04687 l -10,-9.9999996 A 1.25,1.25 0 0 0 12,0.74804688 Z" /></g></svg>
