<?xml version="1.0" encoding="UTF-8" standalone="no"?>
<svg
   width="24"
   height="24"
   viewBox="0 0 24 24"
   version="1.1"
   xml:space="preserve"
   id="SVGRoot"
   xmlns="http://www.w3.org/2000/svg"
   xmlns:svg="http://www.w3.org/2000/svg"><defs
   id="defs1"><linearGradient
     id="swatch52"><stop
       style="stop-color:#000000;stop-opacity:1;"
       offset="0"
       id="stop52" /></linearGradient></defs>

<style
   type="text/css"
   id="style1">
g.prefab path {
  vector-effect:non-scaling-stroke;
  -inkscape-stroke:hairline;
  fill: none;
  fill-opacity: 1;
  stroke-opacity: 1;
  stroke: #00349c;
}
</style>

<g
   id="layer1"><path
     style="display:inline;fill:none;stroke:none;stroke-width:0;stroke-linecap:butt;stroke-linejoin:miter;stroke-miterlimit:0;stroke-dasharray:none"
     id="rect4"
     width="24"
     height="24"
     x="0"
     y="-24"
     transform="matrix(0,1,1,0,24,0)"
     d="M 0,-24 H 24 V 0 H 0 Z" /><path
     id="path56"
     style="stroke-linecap:round;stroke-linejoin:round"
     d="m 23.251953,12 a 1.25,1.25 0 0 0 -0.367187,-0.884766 1.25,1.25 0 0 0 -1.769532,0 L 13.25,18.980469 V 2 A 1.25,1.25 0 0 0 12,0.75 1.25,1.25 0 0 0 10.75,2 V 18.980469 L 2.884766,11.115234 a 1.25,1.25 0 0 0 -1.769532,0 1.25,1.25 0 0 0 0,1.769532 l 10,10 a 1.250125,1.250125 0 0 0 0.146485,0.123046 1.250125,1.250125 0 0 0 0.0039,0.0039 1.25,1.25 0 0 0 0.0078,0.0039 1.250125,1.250125 0 0 0 0.328124,0.167969 1.25,1.25 0 0 0 0.02149,0.0078 1.250125,1.250125 0 0 0 0.527344,0.04883 1.250125,1.250125 0 0 0 0.148437,-0.02734 1.250125,1.250125 0 0 0 0.144531,-0.04492 1.250125,1.250125 0 0 0 0.111329,-0.04883 1.250125,1.250125 0 0 0 0.02539,-0.01172 1.25,1.25 0 0 0 0.01172,-0.0078 1.250125,1.250125 0 0 0 0.07813,-0.04687 1.25,1.25 0 0 0 0.06445,-0.04297 1.250125,1.250125 0 0 0 0.07617,-0.06055 1.250125,1.250125 0 0 0 0.01758,-0.01367 1.25,1.25 0 0 0 0.0098,-0.0098 1.250125,1.250125 0 0 0 0.04687,-0.04102 l 10,-10 A 1.25,1.25 0 0 0 23.251953,12 Z" /></g></svg>
