<?xml version="1.0" encoding="UTF-8" standalone="no"?>
<svg
   width="24"
   height="24"
   viewBox="0 0 24 24"
   version="1.1"
   xml:space="preserve"
   id="SVGRoot"
   xmlns="http://www.w3.org/2000/svg"
   xmlns:svg="http://www.w3.org/2000/svg"><defs
   id="defs1"><linearGradient
     id="swatch52"><stop
       style="stop-color:#000000;stop-opacity:1;"
       offset="0"
       id="stop52" /></linearGradient></defs>

<style
   type="text/css"
   id="style1">
g.prefab path {
  vector-effect:non-scaling-stroke;
  -inkscape-stroke:hairline;
  fill: none;
  fill-opacity: 1;
  stroke-opacity: 1;
  stroke: #00349c;
}
</style>

<g
   id="layer1"><path
     style="display:inline;fill:none;stroke:none;stroke-width:0;stroke-linecap:butt;stroke-linejoin:miter;stroke-miterlimit:0;stroke-dasharray:none"
     id="rect4"
     width="24"
     height="24"
     x="0"
     y="-24"
     transform="scale(1,-1)"
     d="M 0,-24 H 24 V 0 H 0 Z" /><path
     id="path63"
     style="stroke-linecap:round;stroke-linejoin:round"
     d="M 22.607422,2.2148438 A 1.25,1.25 0 0 0 21.722656,2.5800781 L 8.4648438,15.839844 2.2773438,9.6523438 a 1.25,1.25 0 0 0 -1.76757818,0 1.25,1.25 0 0 0 0,1.7675782 l 7.07031248,7.070312 a 1.250125,1.250125 0 0 0 1.7675781,0 L 23.490234,4.3476562 a 1.25,1.25 0 0 0 0,-1.7675781 1.25,1.25 0 0 0 -0.882812,-0.3652343 z" /></g></svg>
