<?xml version="1.0" encoding="UTF-8" standalone="no"?>
<svg
   width="24"
   height="24"
   viewBox="0 0 24 24"
   version="1.1"
   xml:space="preserve"
   id="SVGRoot"
   xmlns="http://www.w3.org/2000/svg"
   xmlns:svg="http://www.w3.org/2000/svg"><defs
   id="defs1"><linearGradient
     id="swatch52"><stop
       style="stop-color:#000000;stop-opacity:1;"
       offset="0"
       id="stop52" /></linearGradient></defs>

<style
   type="text/css"
   id="style1">
g.prefab path {
  vector-effect:non-scaling-stroke;
  -inkscape-stroke:hairline;
  fill: none;
  fill-opacity: 1;
  stroke-opacity: 1;
  stroke: #00349c;
}
</style>

<g
   id="layer1"><path
     style="display:inline;fill:none;stroke:none;stroke-width:0;stroke-linecap:butt;stroke-linejoin:miter;stroke-miterlimit:0;stroke-dasharray:none"
     id="rect4"
     width="24"
     height="24"
     x="0"
     y="-24"
     transform="matrix(-1,0,0,1,24,24)"
     d="M 0,-24 H 24 V 0 H 0 Z" /><path
     id="path58"
     style="stroke-linecap:round;stroke-linejoin:round"
     d="m 12,23.25 a 1.25,1.25 0 0 0 0.884766,-0.365234 1.25,1.25 0 0 0 0,-1.769532 L 3.769531,12 12.884766,2.884766 a 1.25,1.25 0 0 0 0,-1.769532 1.25,1.25 0 0 0 -1.769532,0 l -10,10 a 1.250125,1.250125 0 0 0 0,1.769532 l 10,10 A 1.25,1.25 0 0 0 12,23.25 Z" /></g></svg>
