<?xml version="1.0" encoding="UTF-8" standalone="no"?>
<svg
   width="24"
   height="24"
   viewBox="0 0 24 24"
   version="1.1"
   xml:space="preserve"
   id="SVGRoot"
   xmlns="http://www.w3.org/2000/svg"
   xmlns:svg="http://www.w3.org/2000/svg"><defs
   id="defs1" />

<style
   type="text/css"
   id="style1">
g.prefab path {
  vector-effect:non-scaling-stroke;
  -inkscape-stroke:hairline;
  fill: none;
  fill-opacity: 1;
  stroke-opacity: 1;
  stroke: #00349c;
}
</style>

<g
   id="layer1"><rect
     style="display:inline;fill:none;stroke:none;stroke-width:0;stroke-linecap:butt;stroke-linejoin:miter;stroke-miterlimit:0;stroke-dasharray:none"
     id="rect4"
     width="24"
     height="24"
     x="0"
     y="-24"
     transform="scale(1,-1)" /><path
     id="path16"
     style="stroke-linecap:round"
     d="M 22,0.74804688 A 1.25,1.25 0 0 0 21.115234,1.1152344 L 12,10.230469 2.8847656,1.1152344 A 1.25,1.25 0 0 0 2,0.75 1.25,1.25 0 0 0 1.1152344,1.1152344 a 1.25,1.25 0 0 0 0,1.7695312 L 10.230469,12 1.1152344,21.115234 a 1.25,1.25 0 0 0 0,1.769532 1.25,1.25 0 0 0 1.7695312,0 L 12,13.769531 l 9.115234,9.115235 a 1.25,1.25 0 0 0 1.769532,0 1.25,1.25 0 0 0 0,-1.769532 L 13.769531,12 22.884766,2.8847656 a 1.25,1.25 0 0 0 0,-1.7695312 A 1.25,1.25 0 0 0 22,0.74804688 Z" /></g></svg>
