<?xml version="1.0" encoding="UTF-8" standalone="no"?>
<svg
   width="24"
   height="24"
   viewBox="0 0 24 24"
   version="1.1"
   xml:space="preserve"
   id="SVGRoot"
   xmlns="http://www.w3.org/2000/svg"
   xmlns:svg="http://www.w3.org/2000/svg"><defs
   id="defs1" />

<style
   type="text/css"
   id="style1">
g.prefab path {
  vector-effect:non-scaling-stroke;
  -inkscape-stroke:hairline;
  fill: none;
  fill-opacity: 1;
  stroke-opacity: 1;
  stroke: #00349c;
}
</style>

<g
   id="layer1"><rect
     style="display:inline;fill:none;stroke:none;stroke-width:0;stroke-linecap:butt;stroke-linejoin:miter;stroke-miterlimit:0;stroke-dasharray:none"
     id="rect4"
     width="24"
     height="24"
     x="0"
     y="-24"
     transform="scale(1,-1)" /><path
     id="path13"
     style="stroke-linecap:round"
     d="m 10.880859,4.0839844 a 1.25,1.25 0 0 0 -1.2499996,1.25 1.25,1.25 0 0 0 1.2499996,1.25 h 2.238282 a 1.25,1.25 0 0 0 1.25,-1.25 1.25,1.25 0 0 0 -1.25,-1.25 z M 2,10.75 A 1.25,1.25 0 0 0 0.75,12 1.25,1.25 0 0 0 2,13.25 H 22 A 1.25,1.25 0 0 0 23.25,12 1.25,1.25 0 0 0 22,10.75 Z m 8.880859,6.666016 a 1.25,1.25 0 0 0 -1.2499996,1.25 1.25,1.25 0 0 0 1.2499996,1.25 h 2.238282 a 1.25,1.25 0 0 0 1.25,-1.25 1.25,1.25 0 0 0 -1.25,-1.25 z" /></g></svg>
