<?xml version="1.0" encoding="UTF-8" standalone="no"?>
<svg
   width="24"
   height="24"
   viewBox="0 0 24 24"
   version="1.1"
   xml:space="preserve"
   id="SVGRoot"
   xmlns="http://www.w3.org/2000/svg"
   xmlns:svg="http://www.w3.org/2000/svg"><defs
   id="defs1" />

<style
   type="text/css"
   id="style1">
g.prefab path {
  vector-effect:non-scaling-stroke;
  -inkscape-stroke:hairline;
  fill: none;
  fill-opacity: 1;
  stroke-opacity: 1;
  stroke: #00349c;
}
</style>

<g
   id="layer1"><path
     style="display:inline;fill:none;stroke:none;stroke-width:0;stroke-linecap:butt;stroke-linejoin:miter;stroke-miterlimit:0;stroke-dasharray:none"
     id="rect4"
     width="24"
     height="24"
     x="0"
     y="-24"
     transform="scale(1,-1)"
     d="M 0,-24 H 24 V 0 H 0 Z" /><path
     id="path23"
     style="stroke-linecap:round;stroke-linejoin:round"
     d="M 12,0.74804688 A 1.250125,1.250125 0 0 0 11.115234,1.1152344 L 1.1152344,11.115234 A 1.250125,1.250125 0 0 0 0.75,12 V 22 A 1.250125,1.250125 0 0 0 2,23.25 h 6.6660156 a 1.250125,1.250125 0 0 0 1.25,-1.25 V 15.333984 C 9.9160156,14.168585 10.834601,13.25 12,13.25 c 1.165399,0 2.083984,0.918586 2.083984,2.083984 V 22 a 1.250125,1.250125 0 0 0 1.25,1.25 H 22 A 1.250125,1.250125 0 0 0 23.25,22 V 12 a 1.250125,1.250125 0 0 0 -0.365234,-0.884766 l -10,-9.9999996 A 1.250125,1.250125 0 0 0 12,0.74804688 Z m 0,3.01953122 8.75,8.7499999 V 20.75 H 16.583984 V 15.333984 C 16.583984,12.817485 14.516499,10.75 12,10.75 c -2.5164993,0 -4.5839844,2.067485 -4.5839844,4.583984 V 20.75 H 3.25 v -8.232422 z" /></g></svg>
