<?xml version="1.0" encoding="UTF-8" standalone="no"?>
<svg
   width="24"
   height="24"
   viewBox="0 0 24 24"
   version="1.1"
   xml:space="preserve"
   id="SVGRoot"
   xmlns="http://www.w3.org/2000/svg"
   xmlns:svg="http://www.w3.org/2000/svg"><defs
   id="defs1"><linearGradient
     id="swatch52"><stop
       style="stop-color:#000000;stop-opacity:1;"
       offset="0"
       id="stop52" /></linearGradient></defs>

<style
   type="text/css"
   id="style1">
g.prefab path {
  vector-effect:non-scaling-stroke;
  -inkscape-stroke:hairline;
  fill: none;
  fill-opacity: 1;
  stroke-opacity: 1;
  stroke: #00349c;
}
</style>

<g
   id="layer1"><path
     style="display:inline;fill:none;stroke:none;stroke-width:0;stroke-linecap:butt;stroke-linejoin:miter;stroke-miterlimit:0;stroke-dasharray:none"
     id="rect4"
     width="24"
     height="24"
     x="0"
     y="-24"
     transform="scale(1,-1)"
     d="M 0,-24 H 24 V 0 H 0 Z" /><path
     id="path104"
     style="stroke-linecap:round;stroke-linejoin:round"
     d="M 5.3339844,0.75 C 2.8174851,0.75 0.75,2.8174851 0.75,5.3339844 V 18.666016 C 0.75,21.182501 2.8174991,23.25 5.3339844,23.25 H 18.666016 C 21.182506,23.25 23.25,21.182506 23.25,18.666016 V 5.3339844 C 23.25,2.817485 21.182515,0.75 18.666016,0.75 Z m 0,2.5 H 18.666016 C 19.831415,3.25 20.75,4.1685853 20.75,5.3339844 V 18.666016 c 0,1.004084 -0.683056,1.823244 -1.617188,2.03125 L 9.5507812,11.115234 A 1.250125,1.250125 0 0 0 8.5234375,10.757812 1.250125,1.250125 0 0 0 7.6035156,11.341797 L 3.25,18.363281 V 5.3339844 C 3.25,4.1685854 4.1685854,3.25 5.3339844,3.25 Z M 16.982422,7.3847656 c -1.367033,0.01543 -2.602199,0.9974347 -2.875,2.3847656 -0.313986,1.5815498 0.732883,3.1504978 2.314453,3.4667968 a 1.250125,1.250125 0 0 0 0.0039,0.002 c 1.585896,0.310876 3.155016,-0.744564 3.466797,-2.330078 0.313984,-1.5815491 -0.732885,-3.15049 -2.314453,-3.4667968 a 1.250125,1.250125 0 0 0 -0.0039,-0.00195 c -0.198238,-0.03886 -0.396507,-0.056892 -0.591797,-0.054687 z m 0.01172,2.5 c 0.03084,8.51e-5 0.06341,0.00376 0.0957,0.00977 0.256006,0.05281 0.402951,0.2703884 0.351562,0.5273434 a 1.250125,1.250125 0 0 0 -0.002,0.0039 c -0.05074,0.258845 -0.270985,0.405493 -0.529297,0.357422 -0.256002,-0.05281 -0.40295,-0.270393 -0.351562,-0.527344 a 1.250125,1.250125 0 0 0 0.002,-0.0039 c 0.0444,-0.22649 0.217694,-0.3677828 0.433594,-0.367187 z M 8.8964844,13.998047 15.648438,20.75 H 5.3339844 c -0.2002183,0 -0.391976,-0.02926 -0.5742188,-0.08008 z" /></g></svg>
