<?xml version="1.0" encoding="UTF-8" standalone="no"?>
<svg
   width="24"
   height="24"
   viewBox="0 0 24 24"
   version="1.1"
   xml:space="preserve"
   id="SVGRoot"
   xmlns="http://www.w3.org/2000/svg"
   xmlns:svg="http://www.w3.org/2000/svg"><defs
   id="defs1"><linearGradient
     id="swatch52"><stop
       style="stop-color:#000000;stop-opacity:1;"
       offset="0"
       id="stop52" /></linearGradient></defs>

<style
   type="text/css"
   id="style1">
g.prefab path {
  vector-effect:non-scaling-stroke;
  -inkscape-stroke:hairline;
  fill: none;
  fill-opacity: 1;
  stroke-opacity: 1;
  stroke: #00349c;
}
</style>

<g
   id="layer1"><path
     style="display:inline;fill:none;stroke:none;stroke-width:0;stroke-linecap:butt;stroke-linejoin:miter;stroke-miterlimit:0;stroke-dasharray:none"
     id="rect4"
     width="24"
     height="24"
     x="0"
     y="-24"
     transform="scale(1,-1)"
     d="M 0,-24 H 24 V 0 H 0 Z" /><path
     id="path61"
     style="stroke-linecap:round;stroke-linejoin:round"
     d="M 5.3339844,4.0839844 C 2.8174768,4.0839844 0.75,6.1495081 0.75,8.6660156 v 6.6679684 c -1.5e-7,2.516514 2.0674709,4.582035 4.5839844,4.582032 H 18.666016 C 21.182515,19.916012 23.25,17.850484 23.25,15.333984 V 8.6660156 c 0,-1.4727953 -0.710864,-2.7867563 -1.802734,-3.6269531 A 1.25,1.25 0 0 0 21.285156,4.9179688 C 20.540594,4.3951391 19.63757,4.0839843 18.666016,4.0839844 Z m 0.7148437,2.5 H 17.533203 L 11.976562,10.488281 Z M 20.455078,7.5859375 C 20.642477,7.8992408 20.75,8.268142 20.75,8.6660156 v 6.6679684 c 0,1.165401 -0.918584,2.08203 -2.083984,2.082032 H 5.3339844 C 4.1685724,17.416017 3.2499999,16.499396 3.25,15.333984 V 8.6660156 C 3.25,8.3715263 3.309546,8.0937391 3.4160156,7.8417969 L 11.3125,13.042969 a 1.250125,1.250125 0 0 0 1.40625,-0.01953 z" /></g></svg>
