<?xml version="1.0" encoding="UTF-8" standalone="no"?>
<svg
   width="24"
   height="24"
   viewBox="0 0 24 24"
   version="1.1"
   xml:space="preserve"
   id="SVGRoot"
   xmlns="http://www.w3.org/2000/svg"
   xmlns:svg="http://www.w3.org/2000/svg"><defs
   id="defs1"><linearGradient
     id="swatch52"><stop
       style="stop-color:#000000;stop-opacity:1;"
       offset="0"
       id="stop52" /></linearGradient></defs>

<style
   type="text/css"
   id="style1">
g.prefab path {
  vector-effect:non-scaling-stroke;
  -inkscape-stroke:hairline;
  fill: none;
  fill-opacity: 1;
  stroke-opacity: 1;
  stroke: #00349c;
}
</style>

<g
   id="layer1"><path
     style="display:inline;fill:none;stroke:none;stroke-width:0;stroke-linecap:butt;stroke-linejoin:miter;stroke-miterlimit:0;stroke-dasharray:none"
     id="rect4"
     width="24"
     height="24"
     x="0"
     y="-24"
     transform="scale(1,-1)"
     d="M 0,-24 H 24 V 0 H 0 Z" /><path
     id="path83"
     style="stroke-linecap:round;stroke-linejoin:round"
     d="M 2,0.75 A 1.25,1.25 0 0 0 0.75,2 1.25,1.25 0 0 0 2,3.25 H 22 A 1.25,1.25 0 0 0 23.25,2 1.25,1.25 0 0 0 22,0.75 Z m 0,10 A 1.25,1.25 0 0 0 0.75,12 1.25,1.25 0 0 0 2,13.25 H 22 A 1.25,1.25 0 0 0 23.25,12 1.25,1.25 0 0 0 22,10.75 Z m 0,10 A 1.25,1.25 0 0 0 0.75,22 1.25,1.25 0 0 0 2,23.25 H 22 A 1.25,1.25 0 0 0 23.25,22 1.25,1.25 0 0 0 22,20.75 Z" /></g></svg>
