<?xml version="1.0" encoding="UTF-8" standalone="no"?>
<svg
   width="24"
   height="24"
   viewBox="0 0 24 24"
   version="1.1"
   xml:space="preserve"
   id="SVGRoot"
   xmlns="http://www.w3.org/2000/svg"
   xmlns:svg="http://www.w3.org/2000/svg"><defs
   id="defs1"><linearGradient
     id="swatch52"><stop
       style="stop-color:#000000;stop-opacity:1;"
       offset="0"
       id="stop52" /></linearGradient></defs>

<style
   type="text/css"
   id="style1">
g.prefab path {
  vector-effect:non-scaling-stroke;
  -inkscape-stroke:hairline;
  fill: none;
  fill-opacity: 1;
  stroke-opacity: 1;
  stroke: #00349c;
}
</style>

<g
   id="layer1"><path
     style="display:inline;fill:none;stroke:none;stroke-width:0;stroke-linecap:butt;stroke-linejoin:miter;stroke-miterlimit:0;stroke-dasharray:none"
     id="rect4"
     width="24"
     height="24"
     x="0"
     y="-24"
     transform="scale(1,-1)"
     d="M 0,-24 H 24 V 0 H 0 Z" /><path
     id="path67"
     style="stroke-linecap:round;stroke-linejoin:round"
     d="M 12,0.75 C 5.8016038,0.74999842 0.75000158,5.8016038 0.75,12 c 0,2.141711 0.605264,4.144761 1.6503906,5.851562 l -1.55078122,3.660157 a 1.250125,1.250125 0 0 0 1.59765622,1.65625 L 6.3027344,21.691406 C 7.9756513,22.679503 9.9223242,23.25 12,23.25 18.198398,23.25 23.25,18.198398 23.25,12 23.25,5.8016052 18.198395,0.75 12,0.75 Z m 0,2.5 c 4.847295,0 8.75,3.9027062 8.75,8.75 0,4.847297 -3.902703,8.75 -8.75,8.75 -1.810146,0 -3.4882143,-0.544076 -4.8808594,-1.478516 a 1.25,1.25 0 0 0 -0.070312,-0.04883 C 6.2018684,18.642259 5.4643566,17.915849 4.8691406,17.080078 A 1.25,1.25 0 0 0 4.765625,16.935547 C 3.8085861,15.532257 3.25,13.833888 3.25,12 3.2500012,7.1527041 7.1527041,3.2499988 12,3.25 Z" /><path
     id="path71"
     style="stroke-linecap:round;stroke-linejoin:round"
     d="m 7,9.0830078 a 1.25,1.25 0 0 0 -1.25,1.2500002 1.25,1.25 0 0 0 1.25,1.25 h 10 a 1.25,1.25 0 0 0 1.25,-1.25 A 1.25,1.25 0 0 0 17,9.0830078 Z m 0,3.3339842 a 1.25,1.25 0 0 0 -1.25,1.25 1.25,1.25 0 0 0 1.25,1.25 h 8.333984 a 1.25,1.25 0 0 0 1.25,-1.25 1.25,1.25 0 0 0 -1.25,-1.25 z" /></g></svg>
