<?xml version="1.0" encoding="UTF-8" standalone="no"?>
<svg
   width="24"
   height="24"
   viewBox="0 0 24 24"
   version="1.1"
   xml:space="preserve"
   id="SVGRoot"
   xmlns="http://www.w3.org/2000/svg"
   xmlns:svg="http://www.w3.org/2000/svg"><defs
   id="defs1"><linearGradient
     id="swatch52"><stop
       style="stop-color:#000000;stop-opacity:1;"
       offset="0"
       id="stop52" /></linearGradient></defs>

<style
   type="text/css"
   id="style1">
g.prefab path {
  vector-effect:non-scaling-stroke;
  -inkscape-stroke:hairline;
  fill: none;
  fill-opacity: 1;
  stroke-opacity: 1;
  stroke: #00349c;
}
</style>

<g
   id="layer1"><path
     style="display:inline;fill:none;stroke:none;stroke-width:0;stroke-linecap:butt;stroke-linejoin:miter;stroke-miterlimit:0;stroke-dasharray:none"
     id="rect4"
     width="24"
     height="24"
     x="0"
     y="-24"
     transform="scale(1,-1)"
     d="M 0,-24 H 24 V 0 H 0 Z" /><path
     id="path79"
     style="stroke-linecap:round;stroke-linejoin:round"
     d="M 8.6660156,0.75 C 6.1495071,0.74999983 4.0839844,2.8174759 4.0839844,5.3339844 V 18.666016 c 0,2.516508 2.0655227,4.583984 4.5820312,4.583984 h 6.6679684 c 2.5165,0 4.582032,-2.067485 4.582032,-4.583984 V 5.3339844 c 0,-2.5164997 -2.065532,-4.58398423 -4.582032,-4.5839844 z m 0,2.5 h 6.6679684 c 1.1654,10e-8 2.082032,0.9185849 2.082032,2.0839844 V 18.666016 c 0,1.165399 -0.916632,2.083984 -2.082032,2.083984 H 8.6660156 c -1.1654082,0 -2.0820312,-0.918576 -2.0820312,-2.083984 V 5.3339844 c 0,-1.1654082 0.9166231,-2.0839845 2.0820312,-2.0839844 z m 1.6679684,0.8339844 a 1.25,1.25 0 0 0 -1.2499996,1.25 1.25,1.25 0 0 0 1.2499996,1.25 h 3.332032 a 1.25,1.25 0 0 0 1.25,-1.25 1.25,1.25 0 0 0 -1.25,-1.25 z" /></g></svg>
