<?xml version="1.0" encoding="UTF-8" standalone="no"?>
<svg
   width="24"
   height="24"
   viewBox="0 0 24 24"
   version="1.1"
   xml:space="preserve"
   id="SVGRoot"
   xmlns="http://www.w3.org/2000/svg"
   xmlns:svg="http://www.w3.org/2000/svg"><defs
   id="defs1"><linearGradient
     id="swatch52"><stop
       style="stop-color:#000000;stop-opacity:1;"
       offset="0"
       id="stop52" /></linearGradient></defs>

<style
   type="text/css"
   id="style1">
g.prefab path {
  vector-effect:non-scaling-stroke;
  -inkscape-stroke:hairline;
  fill: none;
  fill-opacity: 1;
  stroke-opacity: 1;
  stroke: #00349c;
}
</style>

<g
   id="layer1"><path
     style="display:inline;fill:none;stroke:none;stroke-width:0;stroke-linecap:butt;stroke-linejoin:miter;stroke-miterlimit:0;stroke-dasharray:none"
     id="rect4"
     width="24"
     height="24"
     x="0"
     y="-24"
     transform="scale(1,-1)"
     d="M 0,-24 H 24 V 0 H 0 Z" /><path
     id="path110"
     style="stroke-linecap:round;stroke-linejoin:round"
     d="M 3.4628906,0.765625 A 1.250125,1.250125 0 0 0 3.0507812,0.91210938 1.250125,1.250125 0 0 0 2.4160156,2 v 20 a 1.250125,1.250125 0 0 0 1.8945313,1.072266 l 16.6660151,-10 a 1.250125,1.250125 0 0 0 0,-2.144532 L 4.3105469,0.92773438 A 1.250125,1.250125 0 0 0 3.4628906,0.765625 Z M 4.9160156,4.2070312 17.902344,12 4.9160156,19.792969 Z" /></g></svg>
