<?xml version="1.0" encoding="UTF-8" standalone="no"?>
<svg
   width="24"
   height="24"
   viewBox="0 0 24 24"
   version="1.1"
   xml:space="preserve"
   id="SVGRoot"
   xmlns="http://www.w3.org/2000/svg"
   xmlns:svg="http://www.w3.org/2000/svg"><defs
   id="defs1"><linearGradient
     id="swatch52"><stop
       style="stop-color:#000000;stop-opacity:1;"
       offset="0"
       id="stop52" /></linearGradient></defs>

<style
   type="text/css"
   id="style1">
g.prefab path {
  vector-effect:non-scaling-stroke;
  -inkscape-stroke:hairline;
  fill: none;
  fill-opacity: 1;
  stroke-opacity: 1;
  stroke: #00349c;
}
</style>

<g
   id="layer1"><path
     style="display:inline;fill:none;stroke:none;stroke-width:0;stroke-linecap:butt;stroke-linejoin:miter;stroke-miterlimit:0;stroke-dasharray:none"
     id="rect4"
     width="24"
     height="24"
     x="0"
     y="-24"
     transform="scale(1,-1)"
     d="M 0,-24 H 24 V 0 H 0 Z" /><path
     id="path54"
     style="stroke-linecap:round;stroke-linejoin:round"
     d="M 10.333984,0.75 C 5.0560613,0.75 0.74999994,5.0560613 0.75,10.333984 c 0,5.277924 4.3060613,9.582032 9.583984,9.582032 2.189367,0 4.209649,-0.742804 5.826172,-1.986328 l 4.955078,4.955078 a 1.25,1.25 0 0 0 1.769532,0 1.25,1.25 0 0 0 0,-1.769532 l -4.955078,-4.955078 c 1.243524,-1.616523 1.986328,-3.636805 1.986328,-5.826172 C 19.916016,5.0560613 15.611908,0.75 10.333984,0.75 Z m 0,2.5 c 3.926824,0 7.082032,3.1571616 7.082032,7.083984 0,3.926824 -3.155208,7.082032 -7.082032,7.082032 C 6.4071616,17.416016 3.25,14.260808 3.25,10.333984 3.25,6.4071616 6.4071616,3.25 10.333984,3.25 Z" /></g></svg>
