<?xml version="1.0" encoding="UTF-8" standalone="no"?>
<svg
   width="24"
   height="24"
   viewBox="0 0 24 24"
   version="1.1"
   xml:space="preserve"
   id="SVGRoot"
   xmlns="http://www.w3.org/2000/svg"
   xmlns:svg="http://www.w3.org/2000/svg"><defs
   id="defs1"><linearGradient
     id="swatch52"><stop
       style="stop-color:#000000;stop-opacity:1;"
       offset="0"
       id="stop52" /></linearGradient></defs>

<style
   type="text/css"
   id="style1">
g.prefab path {
  vector-effect:non-scaling-stroke;
  -inkscape-stroke:hairline;
  fill: none;
  fill-opacity: 1;
  stroke-opacity: 1;
  stroke: #00349c;
}
</style>

<g
   id="layer1"><path
     style="display:inline;fill:none;stroke:none;stroke-width:0;stroke-linecap:butt;stroke-linejoin:miter;stroke-miterlimit:0;stroke-dasharray:none"
     id="rect4"
     width="24"
     height="24"
     x="0"
     y="-24"
     transform="scale(1,-1)"
     d="M 0,-24 H 24 V 0 H 0 Z" /><path
     id="path103"
     style="stroke-linecap:round;stroke-linejoin:round"
     d="M 12,0.75 A 1.25,1.25 0 0 0 10.75,2 v 3.3339844 a 1.25,1.25 0 0 0 1.25,1.25 1.25,1.25 0 0 0 1.25,-1.25 V 2 A 1.25,1.25 0 0 0 12,0.75 Z M 4.9296875,3.6796875 a 1.25,1.25 0 0 0 -0.8847656,0.3652344 1.25,1.25 0 0 0 0,1.7675781 l 2.3574219,2.3574219 a 1.25,1.25 0 0 0 1.7675781,0 1.25,1.25 0 0 0 0,-1.7675781 L 5.8125,4.0449219 A 1.25,1.25 0 0 0 4.9296875,3.6796875 Z m 14.1406245,0 A 1.25,1.25 0 0 0 18.1875,4.0449219 l -2.357422,2.3574219 a 1.25,1.25 0 0 0 0,1.7675781 1.25,1.25 0 0 0 1.767578,0 L 19.955078,5.8125 a 1.25,1.25 0 0 0 0,-1.7675781 1.25,1.25 0 0 0 -0.884766,-0.3652344 z M 12,7.4160156 C 9.4835005,7.4160198 7.4160153,9.4834996 7.4160156,12 7.4160159,14.516497 9.4835027,16.583984 12,16.583984 14.516502,16.583988 16.583981,14.516503 16.583984,12 16.583984,9.4834966 14.516503,7.4160118 12,7.4160156 Z m 0,2.5 C 13.165402,9.9160138 14.083984,10.834599 14.083984,12 14.083983,13.165402 13.165402,14.083986 12,14.083984 10.834603,14.083984 9.9160158,13.165396 9.9160156,12 9.9160155,10.834599 10.834599,9.9160175 12,9.9160156 Z M 2,10.75 A 1.25,1.25 0 0 0 0.75,12 1.25,1.25 0 0 0 2,13.25 h 3.3339844 a 1.25,1.25 0 0 0 1.25,-1.25 1.25,1.25 0 0 0 -1.25,-1.25 z m 16.666016,0 a 1.25,1.25 0 0 0 -1.25,1.25 1.25,1.25 0 0 0 1.25,1.25 H 22 A 1.25,1.25 0 0 0 23.25,12 1.25,1.25 0 0 0 22,10.75 Z M 7.2851562,15.464844 A 1.25,1.25 0 0 0 6.4023438,15.830078 L 4.0449219,18.1875 a 1.25,1.25 0 0 0 0,1.767578 1.25,1.25 0 0 0 1.7675781,0 l 2.3574219,-2.357422 a 1.25,1.25 0 0 0 0,-1.767578 1.25,1.25 0 0 0 -0.8847657,-0.365234 z m 9.4296878,0 a 1.25,1.25 0 0 0 -0.884766,0.365234 1.25,1.25 0 0 0 0,1.767578 l 2.357422,2.357422 a 1.25,1.25 0 0 0 1.767578,0 1.25,1.25 0 0 0 0,-1.767578 L 17.597656,15.830078 A 1.25,1.25 0 0 0 16.714844,15.464844 Z M 12,17.416016 a 1.25,1.25 0 0 0 -1.25,1.25 V 22 A 1.25,1.25 0 0 0 12,23.25 1.25,1.25 0 0 0 13.25,22 v -3.333984 a 1.25,1.25 0 0 0 -1.25,-1.25 z" /></g></svg>
