<?xml version="1.0" encoding="UTF-8" standalone="no"?>
<!-- Created with Inkscape (http://www.inkscape.org/) -->

<svg
   width="48"
   height="48"
   viewBox="0 0 48 48"
   version="1.1"
   id="svg1"
   xmlns="http://www.w3.org/2000/svg"
   xmlns:svg="http://www.w3.org/2000/svg">
  <defs
     id="defs1">
    <linearGradient
       id="swatch83">
      <stop
         style="stop-color:#000000;stop-opacity:1;"
         offset="0"
         id="stop83" />
    </linearGradient>
  </defs>
  <g
     id="layer1">
    <path
       style="fill:#000000;stroke:#000000;stroke-width:2.5;stroke-linecap:round;stroke-linejoin:round;stroke-opacity:1;stroke-dasharray:none;fill-opacity:1"
       d="M 24.000001,6.0000002 A 18.000001,18.000001 45 0 1 42.000002,24.000001 18.000001,18.000001 135 0 1 24.000001,42.000002 18.000001,18.000001 45 0 1 6.0000002,24.000001 18.000001,18.000001 135 0 1 24.000001,6.0000002 Z"
       id="path95" />
    <path
       style="fill:#ffffff;fill-opacity:1;stroke:#ffffff;stroke-width:2.5;stroke-linecap:round;stroke-linejoin:round;stroke-dasharray:none;stroke-opacity:1"
       d="m 12.000001,36 c 0,-3.313762 2.68629,-5.999999 5.999999,-5.999999 h 12.000001 a 6.0000004,6.0000004 45 0 1 6,6 v 1e-6 a 5.9999996,5.9999996 135 0 1 -6,6 l -12,-1e-6 c -3.313709,0 -6,-2.686292 -6,-6.000001 z"
       id="path96"
       transform="translate(0,-4.8)" />
    <path
       style="fill:#ffffff;stroke:#ffffff;stroke-width:2.5;stroke-linecap:round;stroke-linejoin:round;stroke-dasharray:none;stroke-opacity:1;fill-opacity:1"
       d="m 18.000001,24.000001 v 0 a 5.9999995,5.9999995 45 0 0 5.999999,6 l 1e-6,0 a 6,6 135 0 0 6,-6 6,6 45 0 0 -6,-6 6,6 135 0 0 -6,6 z"
       id="path97"
       transform="translate(0,-6.0000003)" />
  </g>
</svg>
