<?xml version="1.0" encoding="UTF-8" standalone="no"?>
<svg
   width="24"
   height="24"
   viewBox="0 0 24 24"
   version="1.1"
   xml:space="preserve"
   id="SVGRoot"
   xmlns="http://www.w3.org/2000/svg"
   xmlns:svg="http://www.w3.org/2000/svg"><defs
   id="defs1" />

<style
   type="text/css"
   id="style1">
g.prefab path {
  vector-effect:non-scaling-stroke;
  -inkscape-stroke:hairline;
  fill: none;
  fill-opacity: 1;
  stroke-opacity: 1;
  stroke: #00349c;
}
</style>

<g
   id="layer1"><path
     style="display:inline;fill:none;stroke:none;stroke-width:0;stroke-linecap:butt;stroke-linejoin:miter;stroke-miterlimit:0;stroke-dasharray:none"
     id="rect4"
     width="24"
     height="24"
     x="0"
     y="-24"
     transform="scale(1,-1)"
     d="M 0,-24 H 24 V 0 H 0 Z" /><path
     id="path36"
     style="stroke-linecap:round;stroke-linejoin:round"
     d="m 12,4.0832859 c -2.5164904,0 -4.5839781,2.0655409 -4.5839844,4.5820312 C 7.4160094,11.181817 9.483501,13.249303 12,13.249302 c 2.51649,-10e-7 4.583994,-2.067494 4.583984,-4.5839849 C 16.583975,6.1488265 14.516491,4.0832859 12,4.0832859 Z m 0,2.5 c 1.165394,0 2.08398,0.9166376 2.083984,2.0820312 C 14.083989,9.830704 13.165387,10.749301 12,10.749302 10.834604,10.749303 9.9160127,9.8307133 9.9160156,8.6653171 9.9160185,7.4999249 10.834608,6.5832859 12,6.5832859 Z m 0,7.5000001 c -6.1984006,0 -11.2499845,5.051599 -11.25,11.25 a 1.25,1.25 0 0 0 1.25,1.25 1.25,1.25 0 0 0 1.25,-1.25 c 1.21e-5,-4.847303 3.9026975,-8.75 8.75,-8.75 4.847289,1.2e-5 8.75,3.902711 8.75,8.75 a 1.25,1.25 0 0 0 1.25,1.25 1.25,1.25 0 0 0 1.25,-1.25 c 0,-6.198387 -5.051613,-11.249985 -11.25,-11.25 z"
     transform="translate(0,-3.3332859)" /></g></svg>
